PathFileType	4	(X/Y/Z)	Patient4_TMGait_0pt2_01_right_22.trc.trc
DataRate	CameraRate	NumFrames	NumMarkers	Units	OrigDataRate	OrigDataStartFrame	OrigNumFrames
45.454545454545	45.454545454545	5	33	mm	45.454545454545	18	       141
Frame#	Time	Sacral			L.Shoulder			Chest			R.Shoulder			Neck			R.ASIS			L.ASIS			R.Thigh.Superior			R.Thigh.Lateral			R.Thigh.Inferior			R.Patella			L.Thigh.Superior			L.Thigh.Lateral			L.Thigh.Inferior			L.Patella			L.Shank.Superior			L.Shank.Lateral			L.Shank.Inferior			R.Shank.Superior			R.Shank.Lateral			R.Shank.Inferior			R.Heel			R.Midfoot.Superior			R.Midfoot.Lateral			R.Toe			L.Heel			L.Midfoot.Lateral			L.Midfoot.Superior			L.Toe			L.Elbow			L.Wrist			R.Elbow			R.Wrist			
		X1	Y1	Z1	X2	Y2	Z2	X3	Y3	Z3	X4	Y4	Z4	X5	Y5	Z5	X6	Y6	Z6	X7	Y7	Z7	X8	Y8	Z8	X9	Y9	Z9	X10	Y10	Z10	X11	Y11	Z11	X12	Y12	Z12	X13	Y13	Z13	X14	Y14	Z14	X15	Y15	Z15	X16	Y16	Z16	X17	Y17	Z17	X18	Y18	Z18	X19	Y19	Z19	X20	Y20	Z20	X21	Y21	Z21	X22	Y22	Z22	X23	Y23	Z23	X24	Y24	Z24	X25	Y25	Z25	X26	Y26	Z26	X27	Y27	Z27	X28	Y28	Z28	X29	Y29	Z29	X30	Y30	Z30	X31	Y31	Z31	X32	Y32	Z32	X33	Y33	Z33	

18	49.814000000000	738.742883615477	999.182181633592	396.796207321683	941.402675560081	1438.600246404790	264.973729226467	1001.457347261926	1368.451926415360	444.717079354530	876.624371169759	1434.588756299987	595.204787313668	884.650912363890	1495.773806095057	417.414923154298	945.917018525671	944.996934129310	557.293970762260	980.223291347968	964.375700435159	283.894607052884	1027.010773390070	768.594611986096	534.192831586785	974.995632993060	647.527452054809	602.695795111137	1065.646725596947	607.794627769927	527.845489702945	1094.459363866896	522.675060053032	545.734907242810	1006.959292513054	740.411011175677	326.121174069095	919.548185077817	623.641296885262	256.271701587826	981.618233772483	546.498146003968	337.236270119483	973.216078857126	478.398963955816	349.570628945570	941.795181835263	406.376109075573	339.975223064839	851.236388127889	296.407849312707	282.269556144708	878.804249700821	186.685524705873	366.319849651808	1072.424063596568	432.801253750570	560.177420586725	1010.664748910346	327.752791553641	631.850814581376	1070.433056744188	232.618203808152	583.540523955412	960.031152150353	50.209902852521	569.835265900191	1129.198882113036	118.526256793926	602.675338333904	1048.299240264149	46.210780992421	639.869521053835	1252.470498340945	76.100216536131	620.960121204298	736.008233801606	37.791638262801	399.018874999029	815.574481146994	35.249260066129	323.726870464533	897.483897955970	95.683433291669	357.177057815332	1027.199368725512	43.433813972257	337.804638099424	1102.404337268687	1160.405929292100	105.942225555587	1360.158764837866	1125.851696104506	136.418268602332	706.228734189928	1128.409923528894	665.394921582845	670.660125640519	869.052280557227	661.451542062541	
19	49.836000000000	740.489766964499	999.032120729209	398.311373079739	943.817629924445	1438.068907950431	267.536588114072	1002.755605054376	1368.228583597928	447.752285168564	877.075983918470	1434.839081493132	597.319363762269	886.182577041678	1495.506127234233	419.603753800091	946.518291911840	944.225336394646	560.091646685918	982.525542278848	964.141724990775	286.832740815031	1025.804556159523	766.118236522362	538.245989554737	970.807126265156	645.295167266130	605.392110409869	1062.042590235893	605.208803649432	531.641776434991	1088.925498294414	521.247827118768	548.231025210670	1006.301164436033	739.462353009650	328.379521108903	917.460324098534	624.015343949335	257.166463765185	977.841835326811	545.805856486135	337.996018283545	968.410370969276	478.033524793458	350.052819509632	937.394232226292	406.380146910959	340.227220532038	846.805856832144	296.497517270677	282.344369478318	874.306778955198	186.676519015629	366.337799391235	1069.498981355247	431.136390524940	562.432883125559	1010.618267374083	324.602330319376	634.318821322827	1072.074230355750	230.984434366645	585.200904064820	965.111697278209	47.452944047330	572.084976470732	1133.636560298784	117.445533939768	603.236152562261	1054.185329572860	44.228104042036	641.183709661322	1257.538742196395	76.399577841189	619.890860133232	731.535659772065	37.729821972416	398.996057124137	811.105492403630	35.178128484523	323.711226192168	893.028654944365	95.639077687585	357.153179931967	1022.737733509318	43.400112021262	337.831199162031	1107.901600254828	1162.933707669933	108.200751474248	1366.475373764883	1136.860954144083	138.450515737729	706.398559867251	1129.162986622612	666.388702617333	670.959605003044	869.696034949581	661.603334605031	
20	49.858000000000	742.553934207294	998.721646873204	400.311586738340	946.163908204806	1437.363399860231	270.376483964912	1004.309183423093	1367.869306999642	450.982013769066	877.980157254147	1434.860551428436	599.822352369884	887.839671251883	1495.067368839070	422.147530460776	947.629448458658	943.212452609549	563.092145966370	985.067543744732	963.787930326031	289.998852906339	1025.200622022841	763.431467903930	542.056401802044	967.347375339436	642.910975430302	607.730829495731	1059.028278786953	602.555220252433	534.862239483148	1083.793737204663	519.395280544035	550.268869923404	1006.042931701660	738.401618693160	330.728454606890	915.673205590587	624.311461845361	258.319182717711	974.472347934033	545.038541627609	338.916624042490	964.069108836119	477.564697344978	350.690574809451	933.338984136224	406.302694319103	340.641077165959	842.566150063542	296.634284436582	282.554532869241	869.920902202106	186.620207335781	366.393537757353	1066.405620010879	429.064696910701	564.250429094470	1009.476769207876	321.578077151675	636.032714096632	1071.978972832443	229.124187116042	586.203287786299	967.113850910016	45.557942411658	573.351884576142	1135.335032436831	115.964610566716	603.052331840184	1056.747789459676	42.613995697164	641.676068092452	1259.458914622772	75.447899503684	618.457533476604	727.062593135738	37.663484526647	398.977932076225	806.638397846345	35.102609955467	323.701812916338	888.578727727520	95.585771069077	357.134751292863	1018.281866540259	43.331484045561	337.851381508896	1112.927712057026	1164.913916940086	110.785095401478	1372.017348125863	1146.483047878748	140.578487828119	707.984375658569	1128.989815728555	668.030237633865	673.287617180888	869.282573859812	662.389984309142	
21	49.880000000000	744.920722161735	998.331492118905	402.792917163399	948.478120355469	1436.560165452707	273.493300936811	1006.143676135515	1367.429704138839	454.405577361597	879.365748611289	1434.708717435336	602.724370579087	889.647616985456	1494.520168874998	425.047199425792	949.265014445164	942.061084159277	566.287401840975	987.828737109111	963.352402763564	293.378095213105	1025.220936671062	760.634942573519	545.581442385111	964.693586610413	640.507011896223	609.768032620767	1056.614164861155	599.918539270883	537.508196641518	1079.173385393582	517.249577202407	551.894393324062	1006.168753786560	737.244541234865	333.158995734264	914.163465533208	624.542433845398	259.752087543093	971.515098525515	544.212955076679	340.013357266846	960.201427008366	477.005834679073	351.506579079102	929.627546079961	406.158391278343	341.240020027770	838.511344498847	296.842574485428	282.922309232412	865.648989608511	186.531256962197	366.495935895281	1063.305605967097	426.712497994625	565.674580935476	1007.519605269724	318.666505218017	637.109931634435	1070.521050962516	227.034950782556	586.631640398346	966.538117799733	44.271631063947	573.814539953486	1134.793504998375	114.086589789868	602.216449273272	1056.545034617871	41.232561591808	641.498043960318	1258.856901911094	73.401700969326	616.738734821090	722.595744134179	37.606206476796	398.962790081751	802.178642580513	35.032724611414	323.703551628198	884.140116433932	95.527949102614	357.124750853733	1013.835679746558	43.222341505017	337.864277002334	1117.461527987394	1166.355105245080	113.686866445430	1376.846152194937	1154.738395515881	142.809749245794	710.773037023157	1128.097956702849	670.344008197270	677.288300575996	868.070108748145	663.891982072936	
22	49.902000000000	747.557347953007	997.945586819635	405.742988259795	950.802517318403	1435.740785065553	276.875309424745	1008.275277012713	1366.968917797243	458.012413768550	881.246128321696	1434.451759237375	606.015183477888	891.632373557326	1493.935313399667	428.287498391898	951.414334453957	940.891261512188	569.673326349630	990.767741388918	962.875955120644	296.952713744795	1025.861137937148	757.861228310017	548.822570375860	962.902318949245	638.225275104189	611.600232152231	1054.809301441188	597.398232206800	539.639483203260	1075.176275348136	514.967601348988	553.183225884278	1006.635388459170	736.018882430279	335.671954650745	912.895867500083	624.728086852294	261.482669412213	968.959968455856	543.355329411705	341.302553978997	956.800062127099	476.379080097634	352.521758984696	926.249562056885	405.970355906882	342.041801844984	834.628498330856	297.151310095431	283.467940452435	861.493245876949	186.433166265990	366.653651212220	1060.372035166779	424.239123502240	566.777326825653	1005.081828642453	315.908282967610	637.715709186196	1068.113563694867	224.788287440058	586.607208379831	963.974912348245	43.412059605865	573.690656096961	1132.559326881572	111.908930680107	600.884078555967	1054.216222327236	40.030469467137	640.848757344109	1256.387967088697	70.535587278369	614.859448006816	718.142203591315	37.580721089675	398.949988779031	797.732319187907	34.984403785506	323.722468952732	879.721641951739	95.473544145477	357.125952964970	1009.402500260914	43.067975930440	337.869349281718	1121.491292830476	1167.277320037242	116.890144975090	1381.020002402566	1161.651120867225	145.149887660817	714.556428087235	1126.715295471242	673.334508019388	682.619528561236	866.332666371734	666.177630585609	
